<?xml version="1.0" encoding="utf-8"?>
<!-- Generator: Adobe Illustrator 16.0.0, SVG Export Plug-In . SVG Version: 6.00 Build 0)  -->
<!DOCTYPE svg PUBLIC "-//W3C//DTD SVG 1.1//EN" "http://www.w3.org/Graphics/SVG/1.1/DTD/svg11.dtd">
<svg version="1.1" id="Capa_1" xmlns="http://www.w3.org/2000/svg" xmlns:xlink="http://www.w3.org/1999/xlink" x="0px" y="0px"
	 width="256px" height="256px" viewBox="0 0 256 256" enable-background="new 0 0 256 256" xml:space="preserve">
<path d="M132.134,105.866c4.735-14.387,1.407-30.874-10.01-42.291C111.013,52.464,95.116,49.061,81.01,53.258
	c0,0-5.709,1.818-9.242,5.223l24.064,24.064L94.73,94.271l-11.725,1.101L58.941,71.307c-3.353,3.353-5.479,9.011-5.479,9.011
	c-4.505,14.259-1.178,30.49,10.112,41.779c11.418,11.417,27.853,14.745,42.24,10.036l68.607,68.607
	c2.483,2.482,5.786,3.738,9.063,3.738c3.251,0,6.554-1.256,9.062-3.738l8.192-8.191c2.483-2.482,3.737-5.787,3.737-9.062
	c0-3.252-1.254-6.555-3.737-9.064l-68.608-68.557L132.134,105.866z M193.496,185.328l-8.192,8.193
	c-0.486,0.486-1.125,0.742-1.816,0.742s-1.305-0.256-1.817-0.742l-73.522-73.55c-11.879,6.681-27.187,5.017-37.299-5.094
	c-7.117-7.117-10.035-16.768-8.832-26.035l17.178,17.177l24.934-2.355l2.355-24.96L89.665,61.885
	c9.011-0.947,18.329,2.023,25.242,8.934c10.112,10.112,11.776,25.421,5.094,37.299l0.025,0.025l-0.051,0.051l73.522,73.522
	c0.486,0.488,0.743,1.127,0.743,1.818c-0.025,0.666-0.257,1.279-0.743,1.791L193.496,185.328z"/>
</svg>
