<?xml version="1.0" encoding="utf-8"?>
<!-- Generator: Adobe Illustrator 16.0.0, SVG Export Plug-In . SVG Version: 6.00 Build 0)  -->
<!DOCTYPE svg PUBLIC "-//W3C//DTD SVG 1.1//EN" "http://www.w3.org/Graphics/SVG/1.1/DTD/svg11.dtd">
<svg version="1.1" id="Capa_1" xmlns="http://www.w3.org/2000/svg" xmlns:xlink="http://www.w3.org/1999/xlink" x="0px" y="0px"
	 width="256px" height="256px" viewBox="0 0 256 256" enable-background="new 0 0 256 256" xml:space="preserve">
<g id="icomoon-ignore">
	<line fill="none" stroke="#449FDB" x1="0" y1="0" x2="0" y2="0"/>
</g>
<path d="M212.531,58.368c-0.025-7.066-5.734-12.774-12.801-12.8h-71.142v10.24h71.142c0.691,0,1.306,0.282,1.793,0.768
	c0.486,0.486,0.742,1.101,0.768,1.792v138.239c0,0.691-0.281,1.306-0.768,1.793c-0.487,0.486-1.102,0.742-1.793,0.768h-71.423v10.24
	h71.423c7.065-0.025,12.774-5.734,12.801-12.801V58.368L212.531,58.368z"/>
<path d="M126.695,180.019l52.608-52.659l-52.429-52.43c0,0-5.913,11.828,0,17.768c4.377,4.377,21.145,21.145,29.671,29.645H51.328
	v10.24h104.986c-8.602,8.627-25.293,25.345-29.619,29.672C120.757,168.192,126.696,180.02,126.695,180.019L126.695,180.019z"/>
</svg>
