<?xml version="1.0" encoding="utf-8"?>
<!-- Generator: Adobe Illustrator 16.0.0, SVG Export Plug-In . SVG Version: 6.00 Build 0)  -->
<!DOCTYPE svg PUBLIC "-//W3C//DTD SVG 1.1//EN" "http://www.w3.org/Graphics/SVG/1.1/DTD/svg11.dtd">
<svg version="1.1" id="Capa_1" xmlns="http://www.w3.org/2000/svg" xmlns:xlink="http://www.w3.org/1999/xlink" x="0px" y="0px"
	 width="256px" height="256px" viewBox="0 0 256 256" enable-background="new 0 0 256 256" xml:space="preserve">
<path d="M128,150.707c12.518,0,22.707-10.188,22.707-22.707c0-12.518-10.189-22.707-22.707-22.707
	c-12.519,0-22.707,10.189-22.707,22.707C105.293,140.519,115.481,150.707,128,150.707z M128,115.533
	c6.887,0,12.467,5.581,12.467,12.467c0,6.886-5.581,12.467-12.467,12.467s-12.467-5.581-12.467-12.467
	C115.533,121.114,121.114,115.533,128,115.533z"/>
<path d="M65.637,117.531l-14.285,1.895l0.077,16.87l14.285,1.767v-0.281c0.64,4.045,1.638,7.937,3.021,11.699l-11.443,8.499
	l8.243,14.72l13.261-5.351c2.841,3.533,6.041,6.758,9.549,9.625l-1.177-0.691l-5.581,13.286l14.567,8.474l8.73-11.392
	c3.737,1.485,7.654,2.611,11.699,3.353l1.382,14.004l16.845,0.486l2.201-14.054c4.916-0.69,9.625-1.946,14.105-3.687l-1.613,0.922
	l8.705,11.47l14.617-8.397l-5.529-13.312l-0.051,0.024c3.354-2.637,6.4-5.606,9.164-8.856l13.186,5.733l8.627-14.488l-11.316-8.857
	c1.613-4.096,2.816-8.422,3.561-12.902l14.053-1.69l0.129-16.845l-14.209-1.92c-0.742-4.454-1.92-8.781-3.533-12.877l11.238-8.883
	l-8.678-14.465l-13.082,5.734c-2.791-3.302-5.914-6.297-9.32-8.986l5.428-12.749l-14.541-8.524l-8.807,11.392l0.078,0.051
	c-3.943-1.407-8.039-2.405-12.289-3.021l-1.768-13.799h-16.869l-1.817,14.232c-4.173,0.769-8.192,1.945-12.032,3.508l0.205-0.129
	l-8.96-11.289l-14.439,8.729l5.837,13.184l0.103-0.076c-3.097,2.61-5.913,5.528-8.448,8.703l-13.261-5.452l-8.346,14.669
	l11.52,8.652c-1.433,3.917-2.457,7.987-3.097,12.211l0.077-0.921L65.637,117.531z M90.674,90.422
	c9.6-9.601,22.809-15.514,37.427-15.514c14.643,0,27.827,5.913,37.426,15.514c9.6,9.6,15.514,22.809,15.514,37.427
	c0,14.643-5.914,27.826-15.514,37.427s-22.809,15.513-37.426,15.513c-14.643,0-27.827-5.912-37.427-15.513
	c-9.6-9.601-15.514-22.784-15.514-37.427C75.185,113.206,81.099,100.021,90.674,90.422L90.674,90.422z"/>
</svg>
