<?xml version="1.0" encoding="utf-8"?>
<!-- Generator: Adobe Illustrator 16.0.0, SVG Export Plug-In . SVG Version: 6.00 Build 0)  -->
<!DOCTYPE svg PUBLIC "-//W3C//DTD SVG 1.1//EN" "http://www.w3.org/Graphics/SVG/1.1/DTD/svg11.dtd">
<svg version="1.1" id="Capa_1" xmlns="http://www.w3.org/2000/svg" xmlns:xlink="http://www.w3.org/1999/xlink" x="0px" y="0px"
	 width="256px" height="256px" viewBox="0 0 256 256" enable-background="new 0 0 256 256" xml:space="preserve">
<path d="M126.107,199.833c-12.646,0-25.447-3.226-37.121-10.087l0,0c-9.6-5.607-17.459-13.005-23.424-21.53
	c0.947,0.179,7.705,1.435,14.566,2.739c7.372,1.408,11.417-9.139,11.417-9.139l-44.185-8.295L45.85,198.45
	c0,0,11.161-1.664,11.417-9.165c0.206-6.299,0.41-12.544,0.487-14.387c6.732,9.369,15.462,17.537,26.061,23.705l0,0
	c13.312,7.758,27.93,11.443,42.317,11.443c29.004,0.026,57.241-14.977,72.883-41.855c6.451-11.11,10.112-23.092,11.136-35.123
	l-10.215-0.87c-0.922,10.547-4.121,21.069-9.805,30.848C176.385,186.674,151.604,199.833,126.107,199.833L126.107,199.833z"/>
<path d="M162.88,91.033l41.575,17.101l10.624-43.699c0,0-11.265-0.666-13.056,6.63c-1.383,5.837-2.791,11.571-3.303,13.696
	c-7.117-12.774-17.613-23.884-31.156-31.769c-13.312-7.756-27.93-11.443-42.316-11.443c-28.979,0-57.242,15.001-72.857,41.856
	c-7.783,13.312-11.47,27.93-11.47,42.317c0,0.947,0.026,1.894,0.052,2.84l10.239-0.333c-0.026-0.819-0.051-1.638-0.051-2.483
	c0-12.646,3.226-25.446,10.062-37.171c13.746-23.628,38.526-36.787,64.024-36.787c12.646,0,25.446,3.226,37.171,10.061
	c12.006,7.015,21.247,16.845,27.494,28.16l-0.154,0.077c0,0-6.861-2.815-13.824-5.683c-6.963-2.868-13.056,6.63-13.056,6.63
	L162.88,91.033z"/>
</svg>
